<?xml version="1.0" standalone="no"?>
<!DOCTYPE svg PUBLIC "-//W3C//DTD SVG 1.1//EN" "http://www.w3.org/Graphics/SVG/1.1/DTD/svg11.dtd" >
<svg xmlns="http://www.w3.org/2000/svg" xmlns:xlink="http://www.w3.org/1999/xlink" version="1.1">
<metadata></metadata>
<defs>
<font id="josephinregular" horiz-adv-x="1138" >
<font-face units-per-em="2048" ascent="1638" descent="-410" />
<missing-glyph horiz-adv-x="569" />
<glyph horiz-adv-x="0" />
<glyph unicode="&#xd;" horiz-adv-x="569" />
<glyph unicode=" "  horiz-adv-x="569" />
<glyph unicode="&#x09;" horiz-adv-x="569" />
<glyph unicode="&#xa0;" horiz-adv-x="569" />
<glyph unicode="!" horiz-adv-x="796" d="M242 1430l39 -1010h233l43 1010h-315zM256 0h287v287h-287v-287z" />
<glyph unicode="&#x22;" horiz-adv-x="985" d="M180 918h250v512h-250v-512zM555 918h250v512h-250v-512z" />
<glyph unicode="#" d="M68 420h184l-59 -420h180l61 420h209l-59 -420h180l59 420h189v164h-166l35 262h190v164h-166l58 420h-181l-57 -420h-209l57 420h-182l-57 -420h-205v-164h180l-35 -262h-206v-164zM457 584l35 262h208l-34 -262h-209z" />
<glyph unicode="$" d="M119 1018q0 -104 39 -174q39 -74 98 -119q61 -45 133 -78t141 -59v-383q-20 -4 -38 -4q-172 2 -324 88l-27 -258q102 -25 181 -39q76 -16 186 -17q10 0 22 2v-161h97v168q182 20 299 122t118 302q0 111 -38 184q-39 74 -103 121q-61 47 -133 80q-74 31 -143 55v379 q8 2 16 2q154 -2 291 -62l27 236q-154 51 -334 51v148h-97v-152q-168 -16 -286 -119q-123 -102 -125 -313zM418 1030q0 74 33 115q33 43 79 63v-319q-51 27 -79 59q-33 33 -33 82zM627 229v314q53 -25 86 -62q33 -39 32 -96q0 -55 -32 -94q-33 -39 -86 -62z" />
<glyph unicode="%" horiz-adv-x="2048" d="M217 1077q4 -373 344 -377q336 4 340 377q-4 371 -340 377q-340 -6 -344 -377zM430 1077q-2 72 27 142q27 70 104 71q82 -2 107 -71q20 -70 20 -142q0 -70 -20 -137q-25 -74 -107 -76q-78 2 -104 76q-29 68 -27 137zM502 -45h168l884 1520h-168zM1149 352 q4 -371 344 -377q336 6 340 377q-4 371 -340 377q-340 -6 -344 -377zM1362 352q-2 72 27 142q27 70 104 71q82 -2 106 -71q20 -70 21 -142q0 -70 -21 -137q-24 -74 -106 -76q-78 2 -104 76q-29 68 -27 137z" />
<glyph unicode="&#x26;" horiz-adv-x="1478" d="M123 391q2 -201 149 -307q143 -109 361 -109q109 0 211 39q102 37 178 113l96 -127h352l-256 287q172 211 183 489h-250q-2 -84 -19 -166q-20 -82 -71 -145l-262 287q119 66 198 151q76 84 78 227q-4 174 -129 250q-125 74 -283 74q-160 0 -290 -80q-139 -82 -144 -246 q0 -119 60 -192q55 -76 139 -152q-166 -70 -236 -166q-68 -98 -65 -227zM397 399q0 86 54 140q48 55 120 90l318 -355q-47 -45 -111 -65q-66 -20 -139 -21q-100 0 -168 60q-72 57 -74 151zM500 1102q0 80 51 117q49 35 113 34q66 0 110 -34q45 -37 47 -113q-2 -63 -65 -121 q-60 -57 -121 -86q-43 43 -86 94q-47 49 -49 109z" />
<glyph unicode="'" horiz-adv-x="569" d="M160 918h250v512h-250v-512z" />
<glyph unicode="(" horiz-adv-x="681" d="M80 631q4 -512 328 -918h260q-289 406 -297 918q0 281 84 497q80 215 213 420h-260q-156 -205 -240 -420q-88 -217 -88 -497z" />
<glyph unicode=")" horiz-adv-x="681" d="M14 -287h258q324 406 330 918q0 281 -88 497q-86 215 -242 420h-258q133 -205 215 -420q80 -217 82 -497q-10 -512 -297 -918z" />
<glyph unicode="*" d="M147 1036l281 -63l-201 -219l187 -136l155 254l146 -254l188 136l-196 219l284 63l-65 213l-273 -114l35 295h-233l32 -297l-272 116z" />
<glyph unicode="+" horiz-adv-x="1228" d="M94 412h414v-412h213v412h414v213h-414v411h-213v-411h-414v-213z" />
<glyph unicode="," horiz-adv-x="569" d="M47 -225h242l186 512h-297z" />
<glyph unicode="-" horiz-adv-x="681" d="M72 438h538v226h-538v-226z" />
<glyph unicode="." horiz-adv-x="569" d="M141 0h287v287h-287v-287z" />
<glyph unicode="/" horiz-adv-x="796" d="M43 -25h213l500 1479h-213z" />
<glyph unicode="0" d="M72 711q0 -113 16 -238q16 -127 68 -240q51 -113 151 -182q98 -74 260 -76q156 2 254 70t152 176q55 111 76 238q18 127 18 252q0 127 -18 258q-20 131 -74 239q-53 109 -152 178q-100 66 -256 68q-143 0 -237 -63q-96 -66 -154 -172q-55 -106 -80 -238 q-25 -133 -24 -270zM358 711q0 74 4 163q6 88 23 173q20 86 64 139q43 53 118 55q80 -2 125 -55q43 -53 62 -139q20 -84 24 -173q2 -90 2 -163v-156q-4 -88 -24 -172q-18 -82 -62 -137q-45 -58 -127 -58q-76 0 -118 58q-43 55 -64 137q-16 84 -23 172q-4 88 -4 156z" />
<glyph unicode="1" horiz-adv-x="899" d="M307 0v1430h287v-1430h-287z" />
<glyph unicode="2" d="M84 0v240q55 51 156 145q100 90 204 205q109 117 183 231q74 115 75 215q-2 98 -71 148q-41 27 -90 37v233q438 0 448 -418q-2 -113 -49 -221q-49 -109 -131 -211q-172 -207 -358 -379h301v-225h-668z" />
<glyph unicode="3" d="M92 23l17 243q72 -20 144.5 -40.5t172.5 -24.5q47 0 100 12q49 12 97 35q47 25 75 65q29 37 29 90q-2 125 -88 177q-86 47 -227 47h-140v225h131q147 0 232 49q84 47 86 139q0 55 -19 93q-20 37 -55 57q-70 39 -172 39h-2v223q31 2 64 2q70 0 149 -12q82 -14 154 -56 q74 -39 121 -110q45 -72 47 -189q-2 -143 -76 -221q-76 -80 -191 -121v-4q137 -20 205 -112t68 -228q-2 -125 -49 -208q-51 -82 -134 -132q-41 -20 -83 -36q-45 -16 -93 -29q-96 -20 -188 -21q-201 0 -375 48z" />
<glyph unicode="4" horiz-adv-x="989" d="M39 297v231l313 529h256l-311 -547h358v547h275v-1057h-275v297h-616z" />
<glyph unicode="5" d="M168 662l14 768h396v-213h-125l-7 -306q49 12 132 15q78 0 159 -19q78 -20 148 -73q70 -51 112 -142q41 -90 41 -231q0 -205 -139 -342q-141 -139 -418 -144q-18 0 -35 2v224q119 0 209 59q94 57 97 193q-2 137 -103 194q-96 53 -225 53q-66 0 -127 -8q-63 -8 -129 -30z " />
<glyph unicode="6" d="M90 641q-4 240 74 444h268q-76 -133 -80 -299l4 -4q98 143 277 144q414 -10 418 -437q0 -233 -115 -372q-119 -139 -361 -142q-291 6 -391 209q-51 94 -71 213q-23 117 -23 244zM377 442q0 -104 47 -176q49 -76 151 -78q100 2 146 82q43 76 43 174q0 109 -45 189 q-46 78 -150 80q-53 -4 -85.5 -18.5t-61.5 -61.5q-45 -80 -45 -191z" />
<glyph unicode="7" d="M205 0l530 1204h-205v226h494v-238l-508 -1192h-311z" />
<glyph unicode="8" d="M72 387q2 -217 149 -313q141 -98 354 -99q217 0 353 101q137 100 139 315q2 244 -274 375v2q119 53 180 147q57 96 57 195q-4 180 -143 264q-139 80 -336 80t-324 -90q-129 -94 -131 -287q0 -113 66 -196q63 -86 172 -136v-4q-262 -121 -262 -354zM358 391q0 92 54 146 q51 55 129 90q94 -27 166 -84t73 -164q-2 -90 -59 -139q-57 -51 -146 -52q-88 0 -149 60q-66 53 -68 143zM371 1069q2 86 67 129q61 43 142 43q84 -2 131 -49q45 -49 45 -131q-2 -68 -47 -125q-49 -57 -113 -82q-37 14 -74 35q-39 18 -73 43q-33 25 -56 59q-22 33 -22 78z " />
<glyph unicode="9" d="M90 940q0 238 117 375t358 139q150 -2 246 -55q96 -55 147 -150q96 -199 93 -461q2 -302 -119 -550q-129 -254 -469 -263v226q172 8 248 141q74 133 77 301l-4 4q-98 -145 -276 -143q-416 10 -418 436zM377 985q0 -106 47 -184q47 -82 147 -84q66 2 95.5 23.5t54.5 58.5 q43 78 43 188q0 104 -45 178q-47 74 -154 76q-98 -2 -143 -78q-45 -78 -45 -178z" />
<glyph unicode=":" horiz-adv-x="569" d="M141 0h287v287h-287v-287zM141 768h287v287h-287v-287z" />
<glyph unicode=";" horiz-adv-x="569" d="M47 -225h242l186 512h-297zM141 768h287v287h-287v-287z" />
<glyph unicode="&#x3c;" horiz-adv-x="1228" d="M94 430l1041 -446v209l-764 325l764 326v209l-1041 -447v-176z" />
<glyph unicode="=" horiz-adv-x="1228" d="M94 188h1041v213h-1041v-213zM94 635h1041v213h-1041v-213z" />
<glyph unicode="&#x3e;" horiz-adv-x="1228" d="M94 -16l1041 446v176l-1041 447v-209l764 -326l-764 -325v-209z" />
<glyph unicode="?" horiz-adv-x="1024" d="M102 1386l23 -227q150 78 315 82q92 0 164 -41q70 -45 72 -145q-2 -78 -45 -133q-45 -55 -107 -119q-57 -59 -100 -150q-47 -90 -49 -235h252q-6 100 47 180q49 78 119 150q72 72 127 153q53 82 55 186q-4 195 -144 283q-139 84 -323 84q-207 -2 -406 -68zM358 0h287v287 h-287v-287z" />
<glyph unicode="@" horiz-adv-x="1638" d="M76 715q6 -369 239 -553q225 -186 504 -187q408 -4 647 318h-174q-98 -78 -223 -105t-250 -24q-233 2 -379 158q-150 152 -151 393q2 225 162 387q158 160 417 164q94 0 187 -17q47 -8 90 -24q43 -18 80 -43q80 -45 127 -127t47 -209q-2 -188 -76 -275q-74 -88 -156 -88 q-33 0 -30 31q0 33 14 70l113 497h-172l-25 -98q-88 131 -238 131q-178 -4 -297 -143q-123 -141 -124 -350q2 -150 96 -242q90 -96 221 -96q66 0 117 32q53 29 90 74h4q4 -53 37 -78q29 -29 74 -28q55 0 139 32q86 31 170 97q88 68 147 178q57 106 60 262q-6 315 -222 461 q-211 141 -473 141q-350 -4 -567 -215q-223 -209 -225 -524zM621 651q0 96 65 178q62 82 164 84q72 0 113 -45q39 -43 38 -118q0 -98 -63 -181q-63 -84 -164 -86q-72 0 -112 49q-41 47 -41 119z" />
<glyph unicode="A" horiz-adv-x="1478" d="M14 0l561 1430h324l561 -1430h-317l-123 328h-391l82 225h229l-207 590h-4l-418 -1143h-297z" />
<glyph unicode="B" horiz-adv-x="1251" d="M166 0v852h403h11q92 0 172 33q41 18 65 53q23 33 23 88q0 63 -23 100q-25 37 -65 54q-41 18 -88 22q-49 2 -101 2h-397v226h500q72 0 153 -11q78 -14 148 -53q72 -39 116 -111q41 -74 43 -192q-2 -127 -77 -211q-76 -84 -207 -109v-4q150 -14 237 -102q88 -88 90 -223 q0 -133 -51 -215t-131 -125q-78 -43 -164 -58q-88 -16 -157 -16h-500zM453 225h135q53 0 104 8q51 10 94 31q94 41 97 160q0 70 -25 115q-25 43 -67 63q-43 25 -95 33q-53 4 -108 4h-135v-414z" />
<glyph unicode="C" horiz-adv-x="1464" d="M96 690q16 725 725 764q537 0 557 -514h-258q-31 276 -305 289h-14q-169 0 -285 -135q-121 -127 -121 -375v-8q0 -223 129 -363q49 -49 101.5 -78.5t134.5 -58.5v-229q-270 25 -443 172q-219 174 -221 536z" />
<glyph unicode="D" horiz-adv-x="1478" d="M166 227v1203h391h18q328 0 560 -144q117 -80 182 -217t65 -348v-6q0 -211 -65 -348q-66 -139 -182 -222q-115 -80 -263 -112q-125 -29 -260 -33v225q188 0 328 129q139 127 143 361q-4 236 -143 362q-139 127 -328 127h-159v-977h-287z" />
<glyph unicode="E" d="M166 0v852h797v-225h-510v-402h561v-225h-848zM166 1206v224h844v-226z" />
<glyph unicode="F" horiz-adv-x="1024" d="M166 0v852h588v-225h-301v-627h-287zM166 1206v224h795v-226z" />
<glyph unicode="G" horiz-adv-x="1478" d="M96 690q14 756 785 764v-227q-217 0 -351 -146q-135 -145 -135 -370q0 -223 129 -363q127 -145 357 -147q117 0 188 20v598h274v-770q-229 -70 -462 -74q-352 0 -564 179q-219 174 -221 536z" />
<glyph unicode="H" horiz-adv-x="1478" d="M166 0v1430h287v-1430h-287zM614 627v225h412v578h287v-1430h-287v627h-412z" />
<glyph unicode="I" horiz-adv-x="569" d="M141 0h287v1430h-287v-1430z" />
<glyph unicode="J" horiz-adv-x="743" d="M131 -20v245q70 0 109 27t53 63q22 71 22 144v18v953h287v-1090q0 -55 -18 -119q-20 -61 -66 -119q-45 -55 -121 -90t-186 -37z" />
<glyph unicode="K" horiz-adv-x="1366" d="M166 0v1059h287v-244l608 719h352l-680 -778l613 -756h-375l-514 664h-4v-664h-287z" />
<glyph unicode="L" horiz-adv-x="1024" d="M166 0h842v225h-555v1205h-287v-1430z" />
<glyph unicode="M" horiz-adv-x="1933" d="M166 614v816h459l340 -1084h4l340 1084h458v-1430h-274v1180h-4l-385 -1180h-275l-385 1180l-4 -4v-562h-274z" />
<glyph unicode="N" horiz-adv-x="1478" d="M152 0v1430h352l545 -1070h4v424h274v-784h-350l-547 1069h-4v-1069h-274z" />
<glyph unicode="O" horiz-adv-x="1593" d="M96 719q0 -334 180 -535q176 -205 521 -209q342 4 522 211q176 203 178 533q0 332 -180 530q-180 201 -520 205q-342 -2 -521 -203q-180 -198 -180 -532zM395 719q0 199 97 350q94 156 305 160q213 -4 309 -160q92 -152 92 -350q0 -201 -90 -354q-45 -74 -123 -119 t-188 -45q-215 4 -310 164q-92 150 -92 346v8z" />
<glyph unicode="P" d="M141 0h287v543h121h9q232 0 384 104q156 104 158 350q-4 254 -180 346q-172 87 -411 87h-5h-363v-1430zM428 768v436h100q115 0 193 -49q37 -25 59 -68q20 -43 21 -106q-2 -121 -80 -168q-77 -45 -184 -45h-9h-100z" />
<glyph unicode="Q" horiz-adv-x="1593" d="M96 719q0 334 180 532q178 201 521 203q340 -4 520 -205q180 -199 180 -530q1 -16 1 -31q0 -338 -253 -487h348v-221h-229h-500q-31 -4 -67 -5q-344 4 -521 209q-180 201 -180 535zM395 719v-8q0 -196 92 -346q94 -160 310 -164q111 0 188 45q78 45 123 119 q90 154 90 354q0 199 -92 350q-96 156 -309 160q-211 -4 -305 -160q-97 -151 -97 -350z" />
<glyph unicode="R" horiz-adv-x="1251" d="M141 707v723h310q119 0 237 -3q119 -6 217 -41q100 -33 160 -114q57 -80 59 -230q0 -127 -77 -219q-78 -92 -273 -131l436 -692h-319l-440 707h-310zM428 819h94q55 0 111 8q53 6 96 27q43 20 72 59q24 39 24 100q0 71 -24 109q-29 37 -72 56q-43 18 -96 24q-55 2 -111 2 h-94v-385z" />
<glyph unicode="S" d="M119 1018q4 238 157 340q147 96 342 96l3 -231q-14 6 -52 -2q-39 -8 -73 -31q-33 -20 -56 -62q-22 -37 -22 -93q0 -50 28 -81q29 -31 72 -55q47 -25 103 -45q53 -23 112 -47q59 -23 115 -53q57 -33 100 -80q43 -45 72 -109q24 -63 24 -150v-7q-4 -231 -157 -332 q-154 -100 -377 -101v226q78 4 152 45q82 45 83 139q0 51 -24 88q-29 37 -72 62q-94 49 -215 94q-59 25 -112 57q-55 31 -103 74q-43 45 -72 108q-28 61 -28 144v6z" />
<glyph unicode="T" d="M16 1204h410v-1204h287v1204h409v226h-1106v-226z" />
<glyph unicode="U" horiz-adv-x="1478" d="M156 516v914h286v-826v-10q0 -177 68 -281q69 -112 226 -112h3q164 0 232 112q65 104 65 285v6v225h287v-313q-8 -541 -568 -541h-16h-16q-559 0 -567 541z" />
<glyph unicode="V" horiz-adv-x="1366" d="M20 1430l492 -1430h352l482 1430h-285l-363 -1123h-4l-366 1123h-308z" />
<glyph unicode="W" horiz-adv-x="2048" d="M20 1430l379 -1430h371l254 1143h4l258 -1143h369l373 1430h-279l-268 -1143h-4l-252 1143h-389l-244 -1143h-4l-266 1143h-302z" />
<glyph unicode="X" horiz-adv-x="1366" d="M20 0h324l334 557l330 -557h338l-469 743l430 687h-308l-305 -510l-299 510h-332l426 -687z" />
<glyph unicode="Y" horiz-adv-x="1366" d="M23 1430h335l338 -601l344 601h303l-512 -865v-995h-286v995z" />
<glyph unicode="Z" d="M74 0v233l671 971v226h306v-234l-678 -971h692v-225h-991z" />
<glyph unicode="[" horiz-adv-x="681" d="M147 -287h459v201h-196v1434h196v200h-459v-1835z" />
<glyph unicode="\" horiz-adv-x="796" d="M41 1454l500 -1479h213l-500 1479h-213z" />
<glyph unicode="]" horiz-adv-x="681" d="M76 -86v-201h459v1835h-459v-200h196v-1434h-196z" />
<glyph unicode="^" horiz-adv-x="1228" d="M135 641h213l266 573l267 -573h213l-383 789h-193z" />
<glyph unicode="_" horiz-adv-x="1024" d="M0 -154v-102h1024v102h-1024z" />
<glyph unicode="`" horiz-adv-x="569" d="M59 1497l281 -299h170l-170 299h-281z" />
<glyph unicode="a" d="M74 289q0 119 53 192q49 74 127 109q82 39 174 51q94 10 180 10h152q-1 127 -58 178q-45 37 -129 48v202q437 -4 437 -434v-10v-135q0 -174 -89.5 -284t-154 -146.5t-137.5 -63.5q-88 -31 -187 -31q-143 2 -252 82q-115 80 -116 232zM336 305q0 -66 51 -96 q47 -33 123 -33q127 2 192 94q59 92 58 217h-166q-25 0 -49 -4q-53 -6 -101 -24q-47 -18 -75 -56q-33 -37 -33 -98z" />
<glyph unicode="b" horiz-adv-x="1251" d="M141 920v616h275v-616h4q106 158 315 159q240 -4 344 -164q100 -160 99 -385v-9q0 -218 -99 -376q-104 -166 -344 -170q-32 -2 -62 -2q-178 0 -270 72q-262 184 -262 875zM418 530v-8q0 -115 55 -217q29 -49 74 -82q45 -35 112 -35q68 0 115 35q45 33 70 82q27 53 39 113 q8 59 8 112q0 115 -45 224q-25 51 -70 82q-44 30 -108 30h-4q-131 -4 -189 -112q-57 -105 -57 -224z" />
<glyph unicode="c" horiz-adv-x="1001" d="M74 532q0 236 133 390q131 156 377 157q342 -2 389 -450h-242q-35 233 -162 237h-7q-84 0 -142 -88q-60 -92 -60 -246q0 -147 64.5 -236t173.5 -106v-215h-4q-258 2 -387 160q-133 154 -133 397z" />
<glyph unicode="d" horiz-adv-x="1251" d="M74 530v9q0 219 100 376q102 160 342 164q199 0 315 -147h5v604h274v-1171q0 -111 133 -123v-242q-299 33 -330 219q-92 -244 -397 -244q-240 4 -342 170q-100 159 -100 376v9zM360 530v-9q0 -111 50 -216q27 -49 71 -82q43 -35 111 -35q72 0 117 35q47 33 73 82 q29 51 41 111q10 59 11 114q0 119 -56 224q-31 51 -76 82q-46 30 -110 30h-4q-129 -4 -180 -112q-25 -49 -35 -109q-13 -60 -13 -115z" />
<glyph unicode="e" d="M74 522q0 236 123 396q123 158 366 161q289 -2 400 -178q102 -173 102 -448v-11h-592v189h330q-4 104 -55 174q-53 72 -168 74q-113 -2 -174 -70q-62 -70 -62 -283q2 -211 84 -278q82 -72 209 -72v-201q-557 8 -563 547z" />
<glyph unicode="f" horiz-adv-x="659" d="M104 0v1202v7q0 161 90 255q93 95 287 97h-3l91 -2v-213q-102 0 -148 -48q-42 -43 -42 -102v-10v-131h190v-201h-190v-854h-275z" />
<glyph unicode="g" horiz-adv-x="1251" d="M74 532v7q0 197 106 364q106 170 340 176q16 1 31 1q150 0 276 -62q199 100 254 237l101 -251q-74 -119 -164 -162q92 -139 92 -439v-301q0 -51 -4 -104q-6 -53 -19 -102q-27 -100 -90 -179q-59 -78 -170 -123q-109 -47 -274 -49h-2v215q90 6 147 37q63 39 95 99 q31 61 38 133q4 72 5 139h-5q-39 -70 -122 -117q-86 -51 -205 -51q-231 4 -330 162q-100 149 -100 362v8zM420 319q31 -47 74 -75q43 -31 100 -31q66 0 113 26.5t73 71.5q55 92 56 228q0 139 -54 231q-57 94 -176 96q-137 -4 -190 -104q-56 -98 -56 -226q0 -119 60 -217z " />
<glyph unicode="h" horiz-adv-x="1251" d="M141 0v1536h275v-625h4q111 164 332 168q186 -2 274 -116q84 -115 84 -297v-281h-274v178q0 51 -2 105q-2 53 -21 96q-14 47 -51 76q-38 26 -100 26h-5q-74 0 -118 -35q-45 -35 -74 -88q-27 -53 -37 -112q-12 -61 -12 -115v-516h-275z" />
<glyph unicode="i" horiz-adv-x="569" d="M147 0v1055h275v-1055h-275z" />
<glyph unicode="j" horiz-adv-x="569" d="M-31 -438l11 196q109 4 141 43q26 35 26 136v22v1096h275v-1133q0 -55 -10 -119q-12 -66 -45 -125q-33 -55 -95 -94q-63 -37 -168 -39q-76 0 -135 17z" />
<glyph unicode="k" d="M147 0v1057h275v-424h4l328 424h323l-393 -473l442 -584h-348l-352 512h-4v-512h-275z" />
<glyph unicode="l" horiz-adv-x="569" d="M147 365v1171h275v-1171q0 -111 133 -123v-242q-406 43 -408 365z" />
<glyph unicode="m" horiz-adv-x="1820" d="M137 514v541h256v-148h4q68 96 152 135q84 37 162 37h5q217 0 306 -186q51 96 143 141q88 45 187 45q193 -2 266 -116q68 -112 68 -287v-10v-666h-275v629v15q0 72 -18 140q-14 37 -45 60q-32 22 -90 22h-5q-68 0 -106 -35q-43 -35 -64 -90q-20 -53 -26 -112 q-8 -63 -8 -117v-512h-275v629v15q0 72 -18 140q-14 37 -45 60q-32 22 -90 22h-5q-68 0 -106 -35q-43 -35 -64 -90q-20 -53 -26 -112q-8 -63 -8 -115h-275z" />
<glyph unicode="n" horiz-adv-x="1251" d="M141 514v541h260v-144h5q129 168 341 168h5q186 -2 274 -116q84 -115 84 -297v-666h-274v563q0 51 -2 105q-2 53 -21 96q-14 47 -51 76q-38 26 -100 26h-5q-74 0 -118 -35q-45 -35 -74 -88q-27 -53 -37 -112q-12 -61 -12 -117h-275z" />
<glyph unicode="o" horiz-adv-x="1251" d="M74 520q0 -231 145 -385q143 -156 406 -160q266 4 409 160q143 154 144 385q-2 264 -158 412q-154 145 -395 147q-238 -2 -392 -147q-157 -148 -159 -412zM360 553q0 125 68 217q66 94 197 96q135 -2 202 -94q63 -92 64 -219q0 -66 -10 -129q-10 -66 -41 -119t-82 -84 q-53 -33 -133 -33q-78 0 -127 35q-51 31 -82 84q-29 53 -41 119q-6 31 -10 66q-5 30 -5 61z" />
<glyph unicode="p" horiz-adv-x="1251" d="M141 -430h275v551h4q74 -84 149 -115q74 -31 160 -31q246 4 350 170q100 162 99 385v9q0 219 -99 376q-104 160 -344 164q-240 -6 -327 -174h-5v150h-262v-1485zM418 530q0 119 57 224q58 108 189 112q68 0 112 -30q45 -31 70 -82q45 -109 45 -224q0 -53 -8 -112 q-12 -59 -39 -113q-25 -49 -70 -82q-47 -35 -115 -35t-112 35q-45 33 -74 82q-55 102 -55 217v8z" />
<glyph unicode="q" horiz-adv-x="1251" d="M74 524v9q0 217 98 376q104 166 344 170q32 2 62 2q178 0 270 -71q262 -184 262 -875v-567h-274v567h-5q-106 -158 -315 -160q-240 4 -344 164q-98 157 -98 376v9zM360 524q0 -115 46 -223q25 -51 69 -82q45 -31 113 -31q131 4 188 113q58 104 58 223v8q0 115 -56 218 q-29 49 -73 81q-45 35 -113 35t-115 -35q-45 -33 -69 -81q-27 -53 -39 -113q-8 -59 -9 -113z" />
<glyph unicode="r" horiz-adv-x="796" d="M147 0v33.5v70.5t1.5 88.5t1.5 88.5v70.5v33.5q-1 29 -1 58q0 43 2 87q3 74 22.5 148t59 144.5t113.5 135.5q63 53 127 82t170 35v-258q-82 -2 -125 -45q-45 -43 -67 -113q-20 -66 -25 -139q-4 -72 -4 -133v-387h-275z" />
<glyph unicode="s" horiz-adv-x="909" d="M74 752q2 172 129 249q119 78 284 78v-207q-41 -2 -71 -16q-53 -27 -56 -94q2 -59 76 -84q35 -14 78 -27q43 -12 86 -28q47 -14 90 -37q41 -25 74 -58q35 -35 55 -84q18 -51 19 -125q-4 -182 -136 -264q-131 -80 -307 -80v201q45 6 92 29q61 27 64 100q0 41 -19 68 q-20 25 -55 39q-72 29 -164 53q-43 14 -86 35q-43 20 -77 53q-35 33 -54 82q-22 45 -22 111v6z" />
<glyph unicode="t" horiz-adv-x="796" d="M29 854v201h202v299h275v-299h244v-201h-244v-872q-272 33 -275 335v537h-202z" />
<glyph unicode="u" horiz-adv-x="1251" d="M141 389v227h275v-124q0 -23 4 -48q0 -25 2 -51q4 -53 18 -100q18 -45 54 -74q37 -31 100 -31q76 0 125 39q47 35 72 88q29 53 36 113q8 59 9 111v516h274v-1055h-260v143h-4q-129 -164 -346 -168q-186 2 -271 119q-88 115 -88 295z" />
<glyph unicode="v" d="M25 1055l391 -1055h309l389 1055h-274l-254 -768h-4l-263 768h-294z" />
<glyph unicode="w" horiz-adv-x="1820" d="M23 1055l356 -1055h313l226 805h4l229 -805h324l323 1055h-262l-219 -781h-4l-230 781h-319l-213 -781h-4l-234 781h-290z" />
<glyph unicode="x" d="M-92 -174l473 727l-363 502h324l244 -344l43 59h293l-158 -217l356 -553h-327l-236 393l-348 -567h-301z" />
<glyph unicode="y" d="M23 1055l403 -1108q0 -84 -47 -135t-131 -54q-94 0 -142 19l-18 -203q96 -29 195 -29q106 0 180 41q70 39 115 105q47 66 79 149q33 82 64 168l395 1047h-278l-254 -770h-4l-254 770h-303z" />
<glyph unicode="z" horiz-adv-x="1024" d="M74 0h876v213h-542l524 616v226h-836v-213h512l-534 -619v-223z" />
<glyph unicode="{" horiz-adv-x="681" d="M37 543q61 0 115 -41q51 -47 53 -164v-348q2 -139 94 -207q88 -70 209 -70h154v164h-93q-66 0 -84 41q-20 37 -18 109v340q0 84 -23 135q-23 49 -57 76q-35 27 -74 38q-41 10 -75 13v4q74 4 149 55q35 27 57 76q23 47 23 117v354q-2 72 18 111q18 39 84 38h93v164h-154 q-115 0 -207 -65q-94 -68 -96 -211v-363q0 -51 -12 -88q-16 -37 -41 -59q-53 -45 -115 -43v-176z" />
<glyph unicode="|" horiz-adv-x="454" d="M121 -512h213v2048h-213v-2048z" />
<glyph unicode="}" horiz-adv-x="681" d="M20 -123v-164h154q121 0 211 68t92 209v348q0 61 17 100q16 39 41 64q53 41 110 41v176q-57 -2 -110 43q-55 41 -58 147v363q-2 143 -92 211q-90 66 -211 65h-154v-164h93q66 0 86 -38q16 -39 16 -111v-354q0 -70 27 -117q23 -49 57 -76q35 -27 76 -39q39 -12 69 -16v-4 q-72 0 -145 -51q-35 -27 -57 -76q-27 -51 -27 -135v-340q0 -72 -16 -109q-20 -41 -86 -41h-93z" />
<glyph unicode="~" horiz-adv-x="1228" d="M141 516l74 -180q25 57 66 102q41 43 110 45q68 0 121 -20q51 -23 102 -51q53 -29 111 -47q57 -25 127 -25q80 2 139 59q59 53 96 121l-73 180q-33 -55 -74 -98q-41 -47 -96 -49q-55 0 -107 25q-53 23 -108 49q-47 29 -105 49q-57 20 -135 20q-94 -2 -153 -57 q-61 -55 -95 -123z" />
<glyph unicode="&#xa1;" horiz-adv-x="796" d="M240 -375h315l-45 1010h-227zM252 768h287v287h-287v-287z" />
<glyph unicode="&#xa2;" d="M176 532q0 236 133 390q131 156 377 157q45 0 82 -4l53 170h119l-57 -186q342 -4 389 -453h-242q-12 240 -209 254l-198 -645q53 -27 125 -27v-217q-127 4 -195 21l-55 -176h-119l65 213q-268 145 -268 503zM463 532q0 -141 65 -235l174 569q-111 -14 -174 -102 q-66 -90 -65 -232z" />
<glyph unicode="&#xa3;" d="M111 0h923v213h-456v449h301v163h-301v138q0 109 63 186q61 78 195 80q61 0 108 -10q49 -10 90 -25l15 225q-104 35 -267 35q-209 -2 -346 -125q-143 -123 -145 -332v-172h-156v-163h156v-449h-180v-213z" />
<glyph unicode="&#xa4;" d="M37 307l121 -121l118 119q135 -94 293 -94t293 94l119 -119l121 121l-119 119q94 139 94 295q0 158 -94 291l119 118l-121 121l-119 -118q-135 94 -293 94t-293 -94l-118 118l-121 -121l119 -118q-94 -135 -95 -293q0 -154 95 -293zM287 719q2 127 84 209q80 84 198 86 q121 -2 201 -86q80 -82 82 -209q-2 -123 -82 -207q-80 -86 -201 -88q-119 2 -198 88q-82 84 -84 207z" />
<glyph unicode="&#xa5;" d="M-20 1430l356 -674h-205v-164h285l16 -27v-100h-301v-164h301v-301h275v301h301v164h-301v100l14 27h287v164h-201l354 674h-268l-315 -631l-310 631h-288z" />
<glyph unicode="&#xa6;" horiz-adv-x="454" d="M121 358v-716h213v716h-213zM121 666h213v716h-213v-716z" />
<glyph unicode="&#xa7;" d="M135 584q2 -129 96 -199q43 -35 97 -59q51 -27 106 -50q119 -39 205 -79q43 -20 68 -52q25 -31 24 -69q-2 -78 -59 -111q-59 -31 -148 -31q-180 4 -344 80l-18 -233q186 -55 379 -60q174 0 311 97q137 92 141 274q-2 150 -139 234q150 90 152 262q-2 139 -93 211 q-88 72 -206 108q-115 37 -203 78q-43 20 -68 51q-25 27 -24 66q2 82 61 112q55 27 135 27q154 0 293 -51l23 223q-162 39 -328 41q-168 0 -301 -84q-141 -86 -145 -266q0 -82 38 -139q37 -57 105 -105q-156 -86 -158 -276zM348 633q0 51 25 92q20 41 49 59q66 -27 131 -49 q63 -20 117 -45q55 -25 90 -57q33 -33 33 -88q-2 -96 -74 -154q-39 25 -98 49q-61 20 -125 47q-59 27 -103 64q-45 33 -45 82z" />
<glyph unicode="&#xa8;" horiz-adv-x="569" d="M-45 1247h238v238h-238v-238zM377 1247h237v238h-237v-238z" />
<glyph unicode="&#xa9;" horiz-adv-x="1638" d="M80 715q4 -311 219 -520q209 -215 520 -220q315 4 524 220q211 209 216 520q-4 315 -216 524q-209 211 -524 215q-311 -4 -520 -215q-215 -209 -219 -524zM293 715q2 260 153 418q147 156 373 157q225 -2 375 -157q150 -158 152 -418q-2 -258 -152 -414 q-150 -160 -375 -162q-225 2 -373 162q-152 156 -153 414zM430 721q0 -188 115 -309q111 -125 303 -127q135 0 235 82q98 78 123 229h-170q-6 -72 -57 -109q-53 -39 -131 -38q-98 0 -156 81q-61 76 -61 193q0 121 57 197q53 72 156 73q74 0 127 -32q51 -37 65 -111h164 q-25 152 -119 229q-96 78 -237 78q-195 -2 -303 -123q-111 -121 -111 -313z" />
<glyph unicode="&#xaa;" horiz-adv-x="739" d="M57 967q0 -49 25 -82q23 -37 59 -58q78 -41 166 -41q63 0 117 23q51 23 76 80h4l6 -86h172q-10 172 -10 373q2 285 -295 278q-135 0 -246 -51v-135q98 61 215 63q72 0 111 -24q39 -29 39 -111h-76q-59 0 -123 -4q-63 -8 -117 -33q-53 -25 -86 -69q-37 -45 -37 -123z M233 977q0 43 23 65q20 23 51 31q31 10 66 12h63h62q0 -72 -39 -122q-41 -53 -119 -54q-33 0 -68 15q-39 14 -39 53z" />
<glyph unicode="&#xab;" d="M100 551l242 -420h258l-225 420l225 420h-258zM557 551l242 -420h258l-226 420l226 420h-258z" />
<glyph unicode="&#xac;" horiz-adv-x="1228" d="M94 635h828v-414h213v627h-1041v-213z" />
<glyph unicode="&#xad;" horiz-adv-x="681" d="M72 438h538v226h-538v-226z" />
<glyph unicode="&#xae;" horiz-adv-x="1638" d="M80 715q4 315 219 524q209 211 520 215q315 -4 524 -215q211 -209 216 -524q-4 -311 -216 -520q-209 -215 -524 -220q-311 4 -520 220q-215 209 -219 520zM293 715q2 -258 153 -414q147 -160 373 -162q225 2 375 162q150 156 152 414q-2 260 -152 418q-150 156 -375 157 q-225 -2 -373 -157q-151 -158 -153 -418zM522 307v821h309q158 0 244 -53q84 -55 84 -192q-2 -109 -59 -160q-59 -51 -158 -59l217 -357h-196l-218 348h-47v-348h-176zM698 791h144q66 -2 102 20q39 20 39 88q-2 63 -53 80q-49 14 -107 14h-125v-202z" />
<glyph unicode="&#xaf;" horiz-adv-x="569" d="M-10 1266h590v164h-590v-164z" />
<glyph unicode="&#xb0;" horiz-adv-x="819" d="M80 1124q0 -143 94 -235q92 -94 236 -94q143 2 235 96q92 92 94 233q-2 141 -96 234q-92 94 -233 96q-139 -2 -232 -96q-96 -92 -98 -234zM229 1124q0 82 52 131q47 48 129 50q82 -2 131 -50q47 -49 49 -131q-2 -82 -49 -129q-49 -51 -131 -51t-129 51q-51 47 -52 129z " />
<glyph unicode="&#xb1;" horiz-adv-x="1228" d="M94 0h1041v213h-1041v-213zM94 553h414v-272h213v272h414v213h-414v270h-213v-270h-414v-213z" />
<glyph unicode="&#xb2;" horiz-adv-x="739" d="M61 578h619v176h-350v4q100 47 221 176q55 63 90 129t35 127q-2 143 -90 205q-90 59 -226 59q-147 0 -276 -68l14 -178q96 70 215 70q125 -2 125 -107q0 -45 -45 -110q-45 -70 -110 -139q-63 -66 -125 -115q-63 -47 -97 -62v-167z" />
<glyph unicode="&#xb3;" horiz-adv-x="739" d="M53 600q139 -35 258 -35q133 0 252 60q55 31 90 82q33 49 33 120q0 78 -45 136q-47 53 -137 61v4q170 47 170 215q0 61 -31 105q-31 39 -82 63q-106 43 -213 43q-125 0 -264 -49l10 -168q53 31 113 43q59 10 110 10q57 0 95 -18q35 -20 37 -76q-2 -51 -50 -74 q-49 -25 -96 -24q-74 0 -119 2v-172q43 6 115 6q61 0 107 -19q41 -25 43 -81q-2 -51 -52 -76q-51 -29 -112 -29q-102 0 -222 41z" />
<glyph unicode="&#xb4;" horiz-adv-x="569" d="M59 1198h170l281 299h-281z" />
<glyph unicode="&#xb5;" horiz-adv-x="1251" d="M141 -430h275v475h4q47 -47 98 -57q51 -12 100 -13q82 2 144 58q61 53 84 110h4v-143h260v1055h-274v-516q0 -51 -9 -111q-8 -59 -36 -113q-25 -53 -72 -88q-49 -39 -125 -39q-63 0 -100 31q-35 29 -54 74q-14 47 -18 100q-2 27 -2 51q-4 25 -4 48v563h-275v-1485z" />
<glyph unicode="&#xb6;" horiz-adv-x="1269" d="M4 1057q4 -350 449 -359v-952h213v1520h217v-1520h213v1684h-600q-217 2 -351 -78q-139 -82 -141 -295z" />
<glyph unicode="&#xb7;" horiz-adv-x="569" d="M127 582q0 -68 45 -113q41 -45 113 -45t116 45q41 45 41 113q0 72 -41 114q-45 41 -116 43q-72 -2 -113 -43q-45 -43 -45 -114z" />
<glyph unicode="&#xb8;" horiz-adv-x="569" d="M154 -412q39 -18 96 -28q57 -12 141 -15q96 0 174 49q80 49 82 164q-2 74 -51 109q-49 33 -113 33q-47 0 -84 -13l-4 4l94 109h-129l-120 -152l30 -53q37 18 86 19q39 2 64 -17q27 -18 26 -57q-2 -39 -34 -55q-33 -16 -74 -17q-43 2 -76 13q-37 10 -67 18z" />
<glyph unicode="&#xb9;" horiz-adv-x="739" d="M289 578l2 864h211v-864h-213z" />
<glyph unicode="&#xba;" horiz-adv-x="813" d="M43 1122q2 -158 109 -245q102 -90 256 -91q156 0 258 91q102 88 104 245q-2 156 -106 244q-102 88 -254 88q-150 0 -256 -88q-109 -88 -111 -244zM244 1122q0 86 39 148q39 59 131 61q88 -2 123 -65q33 -61 32 -144q0 -84 -28 -145q-35 -66 -131 -68q-96 0 -131 64 q-37 61 -35 149z" />
<glyph unicode="&#xbb;" d="M82 131h258l242 420l-242 420h-258l225 -420zM539 131h258l241 420l-241 420h-258l225 -420z" />
<glyph unicode="&#xbc;" horiz-adv-x="1708" d="M41 1237l106 -125l158 121v-655h213v864h-192zM336 -45h168l854 1520h-168zM932 162h411v-162h213v162h99v164h-99v538h-256l-368 -528v-174zM1106 326l233 350h4v-350h-237z" />
<glyph unicode="&#xbd;" horiz-adv-x="1708" d="M20 1235l107 -125l158 123v-655h213v864h-193zM274 -45h168l854 1520h-168zM1022 0h618v176h-350v4q100 47 221 176q55 63 91 129q35 66 34 127q-2 143 -90 205q-90 59 -225 60q-147 0 -277 -68l15 -178q96 70 215 69q125 -2 125 -106q0 -45 -45 -111q-45 -70 -111 -139 q-63 -66 -125 -115q-63 -47 -96 -61v-168z" />
<glyph unicode="&#xbe;" horiz-adv-x="1708" d="M29 600q139 -35 258 -35q133 0 252 60q55 31 90 82q33 49 33 120q0 78 -46 136q-47 53 -137 61v4q170 47 170 215q0 61 -31 105q-31 39 -81 63q-106 43 -213 43q-125 0 -265 -49l11 -168q53 31 112 43q59 10 111 10q57 0 100 -18q41 -20 43 -76q-2 -51 -51 -74 q-49 -25 -106 -24q-74 0 -119 2v-172q43 6 114 6q61 0 111 -19q49 -25 51 -81q-2 -51 -51 -76q-51 -29 -113 -29q-119 0 -233 41zM360 -45h168l854 1520h-168zM956 162h412v-162h213v162h98v164h-98v538h-256l-369 -528v-174zM1135 326l229 350h4v-350h-233z" />
<glyph unicode="&#xbf;" horiz-adv-x="1024" d="M49 -33q2 -195 146 -280q137 -86 321 -86q102 0 207 14q106 14 199 53l-23 228q-147 -80 -315 -82q-84 0 -158 41q-33 23 -55 59q-23 35 -23 86q2 82 49 137q45 57 103 117q59 61 104 152q43 90 45 231h-252q6 -96 -43 -176q-49 -78 -121 -152q-70 -72 -124 -153 q-57 -82 -60 -189zM377 768h287v287h-287v-287z" />
<glyph unicode="&#xc0;" horiz-adv-x="1478" d="M14 0l561 1430h324l561 -1430h-317l-123 328h-391l82 225h229l-207 590h-4l-418 -1143h-297zM469 1821l281 -299h170l-170 299h-281z" />
<glyph unicode="&#xc1;" horiz-adv-x="1478" d="M14 0l561 1430h324l561 -1430h-317l-123 328h-391l82 225h229l-207 590h-4l-418 -1143h-297zM587 1522h170l281 299h-281z" />
<glyph unicode="&#xc2;" horiz-adv-x="1478" d="M14 0l561 1430h324l561 -1430h-317l-123 328h-391l82 225h229l-207 590h-4l-418 -1143h-297zM428 1522h182l144 176l139 -176h182l-215 299h-207z" />
<glyph unicode="&#xc3;" horiz-adv-x="1478" d="M14 0l561 1430h324l561 -1430h-317l-123 328h-391l82 225h229l-207 590h-4l-418 -1143h-297zM387 1559h111q0 33 24 61q25 27 76 29q61 -2 139 -39q39 -14 82 -24q39 -12 95 -13q96 2 149 74q49 70 49 174h-110q0 -96 -91 -100q-39 0 -73 16q-37 12 -76 29q-39 16 -80 28 q-39 12 -86 13q-90 -2 -147 -76q-59 -76 -62 -172z" />
<glyph unicode="&#xc4;" horiz-adv-x="1478" d="M14 0l561 1430h324l561 -1430h-317l-123 328h-391l82 225h229l-207 590h-4l-418 -1143h-297zM422 1571h238v238h-238v-238zM844 1571h237v238h-237v-238z" />
<glyph unicode="&#xc5;" horiz-adv-x="1478" d="M7 0l274 698h158l274 -698h-155l-60 160h-191l40 110h112l-101 288h-2l-204 -558h-145zM537 1696q2 -90 67 -152q61 -66 152 -65q94 0 155 65q59 61 62 152q-2 92 -62 155q-61 61 -155 64q-90 -2 -152 -64q-65 -63 -67 -155zM647 1696q0 47 33 80q29 29 76 28 q47 0 78 -28q29 -33 28 -80q0 -45 -28 -74q-31 -33 -78 -33t-76 33q-33 29 -33 74z" />
<glyph unicode="&#xc6;" horiz-adv-x="1933" d="M18 0h308l176 328h549l24 -328l299 -2l457 2v225h-477l-33 402h457v225h-482l-28 352h555v226h-576h-295h-151zM625 553l354 664h4l47 -664h-405z" />
<glyph unicode="&#xc7;" horiz-adv-x="1251" d="M96 690q16 725 725 764q537 0 557 -514h-258q-31 276 -305 289q-178 6 -299 -135q-123 -129 -121 -383q0 -223 129 -363q49 -49 101.5 -78.5t134.5 -58.5v-229q-270 25 -443 172q-219 174 -221 536zM537 -412l41 111q31 -8 67 -18q33 -10 76 -13q41 0 74 17q33 16 34 55 q0 39 -26 57q-25 18 -64 17q-49 0 -86 -19l-30 53l108 134h121l-74 -91l4 -4q37 12 84 13q63 0 113 -33q49 -35 51 -109q-2 -115 -82 -164q-78 -49 -174 -49q-84 2 -141 15q-57 10 -96 28z" />
<glyph unicode="&#xc8;" d="M166 0v852h797v-225h-510v-402h561v-225h-848zM166 1206v224h844v-226zM290 1821l281 -299h170l-170 299h-281z" />
<glyph unicode="&#xc9;" d="M166 0v852h797v-225h-510v-402h561v-225h-848zM166 1206v224h844v-226zM409 1522h170l281 299h-281z" />
<glyph unicode="&#xca;" d="M166 0v852h797v-225h-510v-402h561v-225h-848zM166 1206v224h844v-226zM250 1522h182l144 176l139 -176h182l-215 299h-207z" />
<glyph unicode="&#xcb;" d="M166 0v852h797v-225h-510v-402h561v-225h-848zM166 1206v224h844v-226zM244 1571h238v238h-238v-238zM666 1571h237v238h-237v-238z" />
<glyph unicode="&#xcc;" horiz-adv-x="569" d="M12 1821l281 -299h170l-170 299h-281zM141 0h287v1430h-287v-1430z" />
<glyph unicode="&#xcd;" horiz-adv-x="569" d="M114 1522h170l281 299h-281zM141 0h287v1430h-287v-1430z" />
<glyph unicode="&#xce;" horiz-adv-x="569" d="M-39 1522h182l144 176l139 -176h182l-215 299h-207zM141 0h287v1430h-287v-1430z" />
<glyph unicode="&#xcf;" horiz-adv-x="569" d="M-45 1571h238v238h-238v-238zM141 0h287v1430h-287v-1430zM377 1571h237v238h-237v-238z" />
<glyph unicode="&#xd0;" horiz-adv-x="1478" d="M35 688v176h131v566h391q340 4 578 -144q117 -80 182 -217q66 -139 65 -354q0 -211 -65 -348q-66 -139 -182 -222q-115 -80 -263 -112q-123 -29 -260 -33v225q188 0 328 129q139 127 143 361q-4 236 -143 362q-139 127 -328 127h-159v-340h299v-176h-299v-461h-287v461 h-131z" />
<glyph unicode="&#xd1;" horiz-adv-x="1478" d="M152 0v1430h352l545 -1070h4v424h274v-784h-350l-547 1069h-4v-1069h-274zM385 1559h111q0 33 24 61q25 27 76 29q61 -2 139 -39q39 -14 82 -24q39 -12 95 -13q96 2 149 74q49 70 49 174h-110q0 -96 -91 -100q-39 0 -73 16q-37 12 -76 29q-39 16 -80 28q-39 12 -86 13 q-90 -2 -147 -76q-59 -76 -62 -172z" />
<glyph unicode="&#xd2;" horiz-adv-x="1593" d="M96 719q0 -334 180 -535q176 -205 521 -209q342 4 522 211q176 203 178 533q0 332 -180 530q-180 201 -520 205q-342 -2 -521 -203q-180 -198 -180 -532zM395 719q0 199 97 350q94 156 305 160q213 -4 309 -160q92 -152 92 -350q0 -201 -90 -354q-45 -74 -123 -119 t-188 -45q-215 4 -310 164q-94 153 -92 354zM528 1821l281 -299h170l-170 299h-281z" />
<glyph unicode="&#xd3;" horiz-adv-x="1593" d="M96 719q0 -334 180 -535q176 -205 521 -209q342 4 522 211q176 203 178 533q0 332 -180 530q-180 201 -520 205q-342 -2 -521 -203q-180 -198 -180 -532zM395 719q0 199 97 350q94 156 305 160q213 -4 309 -160q92 -152 92 -350q0 -201 -90 -354q-45 -74 -123 -119 t-188 -45q-215 4 -310 164q-94 153 -92 354zM645 1522h170l281 299h-281z" />
<glyph unicode="&#xd4;" horiz-adv-x="1593" d="M96 719q0 -334 180 -535q176 -205 521 -209q342 4 522 211q176 203 178 533q0 332 -180 530q-180 201 -520 205q-342 -2 -521 -203q-180 -198 -180 -532zM395 719q0 199 97 350q94 156 305 160q213 -4 309 -160q92 -152 92 -350q0 -201 -90 -354q-45 -74 -123 -119 t-188 -45q-215 4 -310 164q-94 153 -92 354zM485 1522h182l144 176l139 -176h182l-215 299h-207z" />
<glyph unicode="&#xd5;" horiz-adv-x="1593" d="M96 719q0 -334 180 -535q176 -205 521 -209q342 4 522 211q176 203 178 533q0 332 -180 530q-180 201 -520 205q-342 -2 -521 -203q-180 -198 -180 -532zM395 719q0 199 97 350q94 156 305 160q213 -4 309 -160q92 -152 92 -350q0 -201 -90 -354q-45 -74 -123 -119 t-188 -45q-215 4 -310 164q-94 153 -92 354zM444 1559h111q0 33 24 61q25 27 76 29q61 -2 139 -39q39 -14 82 -24q39 -12 95 -13q96 2 149 74q49 70 49 174h-110q0 -96 -91 -100q-39 0 -73 16q-37 12 -76 29q-39 16 -80 28q-39 12 -86 13q-90 -2 -147 -76q-59 -76 -62 -172z " />
<glyph unicode="&#xd6;" horiz-adv-x="1593" d="M96 719q0 -334 180 -535q176 -205 521 -209q342 4 522 211q176 203 178 533q0 332 -180 530q-180 201 -520 205q-342 -2 -521 -203q-180 -198 -180 -532zM395 719q0 199 97 350q94 156 305 160q213 -4 309 -160q92 -152 92 -350q0 -201 -90 -354q-45 -74 -123 -119 t-188 -45q-215 4 -310 164q-94 153 -92 354zM479 1571h238v238h-238v-238zM901 1571h237v238h-237v-238z" />
<glyph unicode="&#xd7;" horiz-adv-x="1228" d="M135 186l148 -147l331 334l332 -334l148 147l-334 332l334 332l-148 147l-332 -331l-331 331l-148 -147l332 -332z" />
<glyph unicode="&#xd8;" horiz-adv-x="1593" d="M96 719q0 -350 195 -549l-121 -156l92 -73l117 151q164 -115 418 -117q342 4 522 211q176 203 178 533q-2 348 -203 551l111 143l-92 76l-111 -143q-162 106 -405 108q-342 -2 -521 -203q-180 -199 -180 -532zM395 719q0 199 97 350q94 156 305 160q154 -2 245 -90 l-575 -742q-72 143 -72 322zM541 299l577 743q80 -141 80 -323q0 -201 -90 -354q-45 -74 -123 -119t-188 -45q-164 2 -256 98z" />
<glyph unicode="&#xd9;" horiz-adv-x="1478" d="M156 516v914h286v-826q-2 -184 68 -291q70 -113 229 -112q164 0 232 112q66 106 65 291v225h287v-313q-8 -549 -584 -541q-575 -8 -583 541zM467 1821l281 -299h170l-170 299h-281z" />
<glyph unicode="&#xda;" horiz-adv-x="1478" d="M156 516v914h286v-826q-2 -184 68 -291q70 -113 229 -112q164 0 232 112q66 106 65 291v225h287v-313q-8 -549 -584 -541q-575 -8 -583 541zM585 1522h170l281 299h-281z" />
<glyph unicode="&#xdb;" horiz-adv-x="1478" d="M156 516v914h286v-826q-2 -184 68 -291q70 -113 229 -112q164 0 232 112q66 106 65 291v225h287v-313q-8 -549 -584 -541q-575 -8 -583 541zM424 1522h182l144 176l139 -176h182l-215 299h-207z" />
<glyph unicode="&#xdc;" horiz-adv-x="1478" d="M156 516v914h286v-826q-2 -184 68 -291q70 -113 229 -112q164 0 232 112q66 106 65 291v225h287v-313q-8 -549 -584 -541q-575 -8 -583 541zM418 1571h238v238h-238v-238zM840 1571h237v238h-237v-238z" />
<glyph unicode="&#xdd;" horiz-adv-x="1366" d="M23 1430h335l338 -601l344 601h303l-512 -865v-995h-286v995zM532 1522h170l281 299h-281z" />
<glyph unicode="&#xde;" d="M141 0h287v305h121q238 -2 393 103q156 104 158 350q-4 254 -180 346q-174 90 -416 88h-76v238h-287v-1430zM428 530v437h100q115 0 193 -49q37 -25 59 -68q20 -43 21 -107q-2 -121 -80 -168q-80 -47 -193 -45h-100z" />
<glyph unicode="&#xdf;" horiz-adv-x="1251" d="M147 0h275v1057q0 111 53 198q53 90 172 93q94 -2 139 -62q43 -61 43 -149q-6 -225 -247 -224v-213q133 2 227 -45q92 -49 94 -186q0 -86 -22 -137q-23 -55 -58 -82t-69 -37q-37 -12 -70 -12q-92 0 -143 22l-9 -213q68 -18 179 -22q213 2 346 123q131 119 133 329 q-2 147 -94 252q-94 104 -252 125v4q272 78 272 363q-4 188 -145 282q-139 94 -320 95q-252 -2 -377 -146q-127 -143 -127 -381v-1034z" />
<glyph unicode="&#xe0;" d="M74 289q0 119 53 192q49 74 127 109q82 39 174 51q94 10 180 10h152q-1 127 -58 178q-45 37 -129 48v202q442 -4 437 -444v-135q0 -174 -89.5 -284t-154 -146.5t-137.5 -63.5q-88 -31 -187 -31q-143 2 -252 82q-115 80 -116 232zM258 1497l281 -299h170l-170 299h-281z M336 305q0 -66 51 -96q47 -33 123 -33q127 2 192 94q59 92 58 217h-166q-25 0 -49 -4q-53 -6 -101 -24q-47 -18 -75 -56q-33 -37 -33 -98z" />
<glyph unicode="&#xe1;" d="M74 289q0 119 53 192q49 74 127 109q82 39 174 51q94 10 180 10h152q-1 127 -58 178q-45 37 -129 48v202q442 -4 437 -444v-135q0 -174 -89.5 -284t-154 -146.5t-137.5 -63.5q-88 -31 -187 -31q-143 2 -252 82q-115 80 -116 232zM336 305q0 -66 51 -96q47 -33 123 -33 q127 2 192 94q59 92 58 217h-166q-25 0 -49 -4q-53 -6 -101 -24q-47 -18 -75 -56q-33 -37 -33 -98zM430 1198h170l281 299h-281z" />
<glyph unicode="&#xe2;" d="M74 289q0 119 53 192q49 74 127 109q82 39 174 51q94 10 180 10h152q-1 127 -58 178q-45 37 -129 48v202q442 -4 437 -444v-135q0 -174 -89.5 -284t-154 -146.5t-137.5 -63.5q-88 -31 -187 -31q-143 2 -252 82q-115 80 -116 232zM252 1198h182l144 176l139 -176h182 l-215 299h-207zM336 305q0 -66 51 -96q47 -33 123 -33q127 2 192 94q59 92 58 217h-166q-25 0 -49 -4q-53 -6 -101 -24q-47 -18 -75 -56q-33 -37 -33 -98z" />
<glyph unicode="&#xe3;" d="M74 289q0 119 53 192q49 74 127 109q82 39 174 51q94 10 180 10h152q-1 127 -58 178q-45 37 -129 48v202q442 -4 437 -444v-135q0 -174 -89.5 -284t-154 -146.5t-137.5 -63.5q-88 -31 -187 -31q-143 2 -252 82q-115 80 -116 232zM211 1235h111q0 33 24 61q25 27 76 29 q61 -2 139 -39q39 -14 82 -24q39 -12 95 -13q96 2 149 74q49 70 49 174h-110q0 -96 -91 -100q-39 0 -73 16q-37 12 -76 29q-39 16 -80 28q-39 12 -86 13q-90 -2 -147 -76q-59 -76 -62 -172zM336 305q0 -66 51 -96q47 -33 123 -33q127 2 192 94q59 92 58 217h-166 q-25 0 -49 -4q-53 -6 -101 -24q-47 -18 -75 -56q-33 -37 -33 -98z" />
<glyph unicode="&#xe4;" d="M74 289q0 119 53 192q49 74 127 109q82 39 174 51q94 10 180 10h152q-1 127 -58 178q-45 37 -129 48v202q442 -4 437 -444v-135q0 -174 -89.5 -284t-154 -146.5t-137.5 -63.5q-88 -31 -187 -31q-143 2 -252 82q-115 80 -116 232zM246 1247h238v238h-238v-238zM336 305 q0 -66 51 -96q47 -33 123 -33q127 2 192 94q59 92 58 217h-166q-25 0 -49 -4q-53 -6 -101 -24q-47 -18 -75 -56q-33 -37 -33 -98zM668 1247h237v238h-237v-238z" />
<glyph unicode="&#xe5;" d="M36 141q0 58 26 94q24 36 62 53q40 19 85 25q46 5 88 5h74q0 62 -28 87q-22 18 -63 23v99q216 -2 213 -217v-66q0 -85 -43.5 -138.5t-75 -71.5t-67.5 -31q-43 -15 -91 -15q-70 1 -123 40q-56 39 -57 113zM164 149q0 -32 25 -47q23 -16 60 -16q62 1 94 46q29 45 28 106 h-81q-12 0 -24 -2q-26 -3 -49 -12t-37 -27q-16 -18 -16 -48zM362 1403q2 -90 68 -152q61 -66 152 -65q94 0 155 65q59 61 62 152q-2 92 -62 156q-61 61 -155 63q-90 -2 -152 -63q-66 -64 -68 -156zM473 1403q0 47 33 80q29 29 76 28q47 0 77 -28q29 -33 29 -80 q0 -45 -29 -74q-31 -33 -77 -33q-47 0 -76 33q-33 29 -33 74z" />
<glyph unicode="&#xe6;" horiz-adv-x="1820" d="M74 289q2 -170 127 -242q121 -72 276 -72q117 -2 223 48q53 25 99 61q43 33 71 82q78 -106 197 -148q117 -43 246 -43q217 0 362 84v224q-76 -45 -162 -74q-88 -33 -188 -33q-129 0 -213 70q-88 68 -90 196h725q2 256 -92 443q-102 188 -379 194q-246 -2 -361 -133 q-37 43 -75 72q-41 27 -84 39q-86 23 -199 22q-201 -2 -375 -80l8 -235q145 113 326 117q137 0 193 -58q51 -57 51 -172h-158q-90 0 -182 -14q-94 -14 -172 -55q-78 -39 -125 -111q-49 -72 -49 -182zM336 289q0 61 31 102q29 39 75 60q47 23 101 30q27 4 51 6h47h119 q6 -311 -268 -311q-74 0 -115 35q-41 31 -41 78zM1022 631q0 106 65 176q61 70 183 72q115 -2 166 -74q49 -74 49 -174h-463z" />
<glyph unicode="&#xe7;" horiz-adv-x="909" d="M74 532q0 236 133 390q131 156 377 157q342 -2 389 -450h-242q-35 233 -162 237q-88 4 -148.5 -88t-60.5 -246q0 -147 64.5 -236t173.5 -106v-215q-262 2 -391 160q-133 154 -133 397zM324 -412q39 -18 96 -28q57 -12 141 -15q96 0 174 49q80 49 82 164q-2 74 -51 109 q-49 33 -113 33q-47 0 -84 -13l-4 4l76 86q-37 -2 -62.5 -1t-62.5 6l-106 -134l30 -53q37 18 86 19q39 2 64 -17q27 -18 26 -57q-2 -39 -34 -55q-33 -16 -74 -17q-43 2 -76 13q-37 10 -67 18z" />
<glyph unicode="&#xe8;" d="M74 522q0 236 123 396q123 158 366 161q289 -2 400 -178q104 -176 102 -459h-592v189h330q-4 104 -55 174q-53 72 -168 74q-113 -2 -174 -70q-62 -70 -62 -283q2 -211 84 -278q82 -72 209 -72v-201q-557 8 -563 547zM258 1497l281 -299h170l-170 299h-281z" />
<glyph unicode="&#xe9;" d="M74 522q0 236 123 396q123 158 366 161q289 -2 400 -178q104 -176 102 -459h-592v189h330q-4 104 -55 174q-53 72 -168 74q-113 -2 -174 -70q-62 -70 -62 -283q2 -211 84 -278q82 -72 209 -72v-201q-557 8 -563 547zM430 1198h170l281 299h-281z" />
<glyph unicode="&#xea;" d="M74 522q0 236 123 396q123 158 366 161q289 -2 400 -178q104 -176 102 -459h-592v189h330q-4 104 -55 174q-53 72 -168 74q-113 -2 -174 -70q-62 -70 -62 -283q2 -211 84 -278q82 -72 209 -72v-201q-557 8 -563 547zM252 1198h182l144 176l139 -176h182l-215 299h-207z " />
<glyph unicode="&#xeb;" d="M74 522q0 236 123 396q123 158 366 161q289 -2 400 -178q104 -176 102 -459h-592v189h330q-4 104 -55 174q-53 72 -168 74q-113 -2 -174 -70q-62 -70 -62 -283q2 -211 84 -278q82 -72 209 -72v-201q-557 8 -563 547zM246 1247h238v238h-238v-238zM668 1247h237v238h-237 v-238z" />
<glyph unicode="&#xec;" horiz-adv-x="569" d="M-55 731l137 -146h83l-83 146h-137zM147 0h275v1055h-275v-1055z" />
<glyph unicode="&#xed;" horiz-adv-x="569" d="M103 585h83l137 146h-137zM147 0h275v1055h-275v-1055z" />
<glyph unicode="&#xee;" horiz-adv-x="569" d="M-19 585h89l70 86l68 -86h89l-105 146h-101zM147 0h275v1055h-275v-1055z" />
<glyph unicode="&#xef;" horiz-adv-x="569" d="M-22 609h116v116h-116v-116zM147 0h275v1055h-275v-1055zM184 609h116v116h-116v-116z" />
<glyph unicode="&#xf0;" horiz-adv-x="1251" d="M74 520q0 -231 145 -385q143 -156 406 -160q541 6 546 603q-10 504 -399 782l170 108l-104 97l-189 -121q-123 72 -260 121l-125 -140q92 -31 203 -98l-170 -110l104 -97l189 123q143 -106 217 -254h-4q-45 31 -105 49q-59 16 -147 17q-229 -4 -354 -160t-123 -375z M360 514q0 121 68 221q66 103 201 107q70 0 119 -29q49 -31 77 -80q59 -104 60 -219q0 -129 -58 -223q-59 -100 -200 -103q-74 0 -123 33q-51 29 -82 76t-45 104q-16 57 -17 113z" />
<glyph unicode="&#xf1;" horiz-adv-x="1251" d="M141 514v541h260v-144h5q131 170 346 168q186 -2 274 -116q84 -115 84 -297v-666h-274v563q0 51 -2 105q-2 53 -21 96q-14 47 -51 76q-39 27 -105 26q-74 0 -118 -35q-45 -35 -74 -88q-27 -53 -37 -112q-12 -61 -12 -117h-275zM268 1235h111q0 33 24 61q25 27 76 29 q61 -2 139 -39q39 -14 82 -24q39 -12 95 -13q96 2 149 74q49 70 49 174h-110q0 -96 -91 -100q-39 0 -73 16q-37 12 -76 29q-39 16 -80 28q-39 12 -86 13q-90 -2 -147 -76q-59 -76 -62 -172z" />
<glyph unicode="&#xf2;" horiz-adv-x="1251" d="M74 520q0 -231 145 -385q143 -156 406 -160q266 4 409 160q143 154 144 385q-2 264 -158 412q-154 145 -395 147q-238 -2 -392 -147q-157 -148 -159 -412zM317 1497l281 -299h170l-170 299h-281zM360 553q0 125 68 217q66 94 197 96q135 -2 202 -94q63 -92 64 -219 q0 -66 -10 -129q-10 -66 -41 -119t-82 -84q-53 -33 -133 -33q-78 0 -127 35q-51 31 -82 84q-29 53 -41 119q-6 31 -10 66q-5 30 -5 61z" />
<glyph unicode="&#xf3;" horiz-adv-x="1251" d="M74 520q0 -231 145 -385q143 -156 406 -160q266 4 409 160q143 154 144 385q-2 264 -158 412q-154 145 -395 147q-238 -2 -392 -147q-157 -148 -159 -412zM360 553q0 125 68 217q66 94 197 96q135 -2 202 -94q63 -92 64 -219q0 -66 -10 -129q-10 -66 -41 -119t-82 -84 q-53 -33 -133 -33q-78 0 -127 35q-51 31 -82 84q-29 53 -41 119q-6 31 -10 66q-5 30 -5 61zM487 1198h170l281 299h-281z" />
<glyph unicode="&#xf4;" horiz-adv-x="1251" d="M74 520q0 -231 145 -385q143 -156 406 -160q266 4 409 160q143 154 144 385q-2 264 -158 412q-154 145 -395 147q-238 -2 -392 -147q-157 -148 -159 -412zM309 1198h182l144 176l139 -176h182l-215 299h-207zM360 553q0 125 68 217q66 94 197 96q135 -2 202 -94 q63 -92 64 -219q0 -66 -10 -129q-10 -66 -41 -119t-82 -84q-53 -33 -133 -33q-78 0 -127 35q-51 31 -82 84q-29 53 -41 119q-6 31 -10 66q-5 30 -5 61z" />
<glyph unicode="&#xf5;" horiz-adv-x="1251" d="M74 520q0 -231 145 -385q143 -156 406 -160q266 4 409 160q143 154 144 385q-2 264 -158 412q-154 145 -395 147q-238 -2 -392 -147q-157 -148 -159 -412zM268 1235h111q0 33 24 61q25 27 76 29q61 -2 139 -39q39 -14 82 -24q39 -12 95 -13q96 2 149 74q49 70 49 174 h-110q0 -96 -91 -100q-39 0 -73 16q-37 12 -76 29q-39 16 -80 28q-39 12 -86 13q-90 -2 -147 -76q-59 -76 -62 -172zM360 553q0 125 68 217q66 94 197 96q135 -2 202 -94q63 -92 64 -219q0 -66 -10 -129q-10 -66 -41 -119t-82 -84q-53 -33 -133 -33q-78 0 -127 35 q-51 31 -82 84q-29 53 -41 119q-6 31 -10 66q-5 30 -5 61z" />
<glyph unicode="&#xf6;" horiz-adv-x="1251" d="M74 520q0 -231 145 -385q143 -156 406 -160q266 4 409 160q143 154 144 385q-2 264 -158 412q-154 145 -395 147q-238 -2 -392 -147q-157 -148 -159 -412zM303 1247h238v238h-238v-238zM360 553q0 125 68 217q66 94 197 96q135 -2 202 -94q63 -92 64 -219q0 -66 -10 -129 q-10 -66 -41 -119t-82 -84q-53 -33 -133 -33q-78 0 -127 35q-51 31 -82 84q-29 53 -41 119q-6 31 -10 66q-5 30 -5 61zM725 1247h237v238h-237v-238z" />
<glyph unicode="&#xf7;" horiz-adv-x="1228" d="M94 412h1041v213h-1041v-213zM457 111q0 -68 45 -113q40 -43 112 -45q72 2 117 45q41 45 41 113q0 72 -41 114q-45 41 -117 43q-72 -2 -112 -43q-45 -43 -45 -114zM457 926q0 -68 45 -113q41 -45 112 -45q72 0 117 45q41 45 41 113q0 72 -41 114q-45 41 -117 43 q-72 -2 -112 -43q-45 -43 -45 -114z" />
<glyph unicode="&#xf8;" horiz-adv-x="1251" d="M74 520q0 -236 147 -387l-115 -137l84 -68l113 135q131 -86 322 -88q266 4 409 160q143 154 144 385q-2 260 -156 406l111 133l-82 67l-111 -133q-133 84 -315 86q-238 -2 -392 -147q-158 -147 -159 -412zM360 553q0 125 68 217q66 94 197 96q102 -2 161 -55l-389 -467 q-39 96 -37 209zM459 250l395 475q37 -78 37 -172q0 -66 -10 -129q-10 -66 -41 -119t-82 -84q-53 -33 -133 -33q-106 0 -166 62z" />
<glyph unicode="&#xf9;" horiz-adv-x="1251" d="M141 389v227h275v-124q0 -23 4 -48q0 -25 2 -51q4 -53 18 -100q18 -45 54 -74q37 -31 100 -31q76 0 125 39q47 35 72 88q29 53 36 113q8 59 9 111v516h274v-1055h-260v143h-4q-129 -164 -346 -168q-186 2 -271 119q-88 115 -88 295zM315 1497l281 -299h170l-170 299h-281 z" />
<glyph unicode="&#xfa;" horiz-adv-x="1251" d="M141 389v227h275v-124q0 -23 4 -48q0 -25 2 -51q4 -53 18 -100q18 -45 54 -74q37 -31 100 -31q76 0 125 39q47 35 72 88q29 53 36 113q8 59 9 111v516h274v-1055h-260v143h-4q-129 -164 -346 -168q-186 2 -271 119q-88 115 -88 295zM485 1198h170l281 299h-281z" />
<glyph unicode="&#xfb;" horiz-adv-x="1251" d="M141 389v227h275v-124q0 -23 4 -48q0 -25 2 -51q4 -53 18 -100q18 -45 54 -74q37 -31 100 -31q76 0 125 39q47 35 72 88q29 53 36 113q8 59 9 111v516h274v-1055h-260v143h-4q-129 -164 -346 -168q-186 2 -271 119q-88 115 -88 295zM307 1198h182l144 176l139 -176h182 l-215 299h-207z" />
<glyph unicode="&#xfc;" horiz-adv-x="1251" d="M141 389v227h275v-124q0 -23 4 -48q0 -25 2 -51q4 -53 18 -100q18 -45 54 -74q37 -31 100 -31q76 0 125 39q47 35 72 88q29 53 36 113q8 59 9 111v516h274v-1055h-260v143h-4q-129 -164 -346 -168q-186 2 -271 119q-88 115 -88 295zM301 1247h238v238h-238v-238z M723 1247h237v238h-237v-238z" />
<glyph unicode="&#xfd;" d="M23 1055l403 -1108q0 -84 -47 -135t-131 -54q-94 0 -142 19l-18 -203q96 -29 195 -29q106 0 180 41q70 39 115 105q47 66 79 149q33 82 64 168l395 1047h-278l-254 -770h-4l-254 770h-303zM430 1198h170l281 299h-281z" />
<glyph unicode="&#xfe;" horiz-adv-x="1251" d="M141 -430h275v549h4q49 -61 125 -101q76 -41 190 -43q240 4 344 170q100 162 99 385q2 225 -99 385q-104 160 -344 164q-119 -2 -196 -47q-80 -47 -119 -114h-4v618h-275v-1966zM418 530q0 119 57 224q58 108 189 112q68 0 112 -30q45 -31 70 -82q45 -109 45 -224 q0 -53 -8 -112q-12 -59 -39 -113q-25 -49 -70 -82q-47 -35 -115 -35t-112 35q-45 33 -74 82q-57 106 -55 225z" />
<glyph unicode="&#xff;" d="M23 1055l403 -1108q0 -84 -47 -135t-131 -54q-94 0 -142 19l-18 -203q96 -29 195 -29q106 0 180 41q70 39 115 105q47 66 79 149q33 82 64 168l395 1047h-278l-254 -770h-4l-254 770h-303zM248 1247h238v238h-238v-238zM670 1247h237v238h-237v-238z" />
<glyph unicode="&#x152;" horiz-adv-x="1933" d="M96 707q16 735 770 735l912 -21v-237q-838 31 -926 33q-217 -2 -336 -138q-121 -139 -121 -372q0 -213 119 -351q119 -135 346 -143q88 0 144 12v627h774v-225h-488v-402h541v-225h-543q-229 -4 -459 -12q-133 0 -260 30q-131 29 -237 105q-104 78 -168 221 q-68 139 -68 363z" />
<glyph unicode="&#x153;" horiz-adv-x="1933" d="M74 520q2 264 159 412q154 145 392 147q252 0 393 -180q63 92 162 137q98 43 206 43q283 -4 381 -192q94 -186 93 -445h-594v189h331q-2 102 -49 174t-159 74q-104 -2 -176 -55.5t-74 -307.5q10 -215 93 -280.5t224 -59.5v-201q-133 0 -246 37q-113 35 -182 138 q-84 -106 -194 -142q-111 -35 -209 -33q-262 4 -406 160q-145 154 -145 385zM360 526q-2 -133 58 -237q59 -111 207 -113q152 2 213 109q18 25 30 53q10 27 17 57q12 61 12 127q0 139 -57 246q-63 106 -215 111q-139 -4 -201 -115q-64 -111 -64 -238z" />
<glyph unicode="&#x178;" horiz-adv-x="1366" d="M23 1430h335l338 -601l344 601h303l-512 -865v-995h-286v995zM367 1571h238v238h-238v-238zM789 1571h237v238h-237v-238z" />
<glyph unicode="&#x2c6;" horiz-adv-x="569" d="M-39 1198h182l144 176l139 -176h182l-215 299h-207z" />
<glyph unicode="&#x2dc;" horiz-adv-x="569" d="M-78 1235h111q0 33 24 61q25 27 76 29q61 -2 139 -39q39 -14 82 -24q39 -12 95 -13q96 2 149 74q49 70 49 174h-110q0 -96 -91 -100q-39 0 -73 16q-37 12 -76 29q-39 16 -80 28q-39 12 -86 13q-90 -2 -147 -76q-59 -76 -62 -172z" />
<glyph unicode="&#x2000;" horiz-adv-x="957" />
<glyph unicode="&#x2001;" horiz-adv-x="1915" />
<glyph unicode="&#x2002;" horiz-adv-x="957" />
<glyph unicode="&#x2003;" horiz-adv-x="1915" />
<glyph unicode="&#x2004;" horiz-adv-x="638" />
<glyph unicode="&#x2005;" horiz-adv-x="478" />
<glyph unicode="&#x2006;" horiz-adv-x="319" />
<glyph unicode="&#x2007;" horiz-adv-x="319" />
<glyph unicode="&#x2008;" horiz-adv-x="239" />
<glyph unicode="&#x2009;" horiz-adv-x="383" />
<glyph unicode="&#x200a;" horiz-adv-x="106" />
<glyph unicode="&#x2010;" horiz-adv-x="681" d="M72 438h538v226h-538v-226z" />
<glyph unicode="&#x2011;" horiz-adv-x="681" d="M72 438h538v226h-538v-226z" />
<glyph unicode="&#x2012;" horiz-adv-x="681" d="M72 438h538v226h-538v-226z" />
<glyph unicode="&#x2013;" horiz-adv-x="1024" d="M0 457h1024v188h-1024v-188z" />
<glyph unicode="&#x2014;" horiz-adv-x="2048" d="M0 457h2048v188h-2048v-188z" />
<glyph unicode="&#x2018;" horiz-adv-x="569" d="M70 918h301l129 512h-244z" />
<glyph unicode="&#x2019;" horiz-adv-x="569" d="M70 918h241l189 512h-299z" />
<glyph unicode="&#x201a;" horiz-adv-x="569" d="M70 -225h241l189 512h-299z" />
<glyph unicode="&#x201c;" horiz-adv-x="985" d="M70 918h301l129 512h-244zM485 918h301l129 512h-243z" />
<glyph unicode="&#x201d;" horiz-adv-x="985" d="M70 918h241l189 512h-299zM485 918h242l188 512h-299z" />
<glyph unicode="&#x201e;" horiz-adv-x="985" d="M70 -225h241l189 512h-299zM485 -225h242l188 512h-299z" />
<glyph unicode="&#x2022;" horiz-adv-x="1024" d="M156 715q2 -150 106 -252q98 -104 250 -107q152 2 254 107q102 102 104 252q-2 152 -104 254q-102 100 -254 102q-152 -2 -250 -102q-104 -102 -106 -254z" />
<glyph unicode="&#x2026;" horiz-adv-x="2048" d="M199 0h286v287h-286v-287zM881 0h286v287h-286v-287zM1563 0h286v287h-286v-287z" />
<glyph unicode="&#x202f;" horiz-adv-x="383" />
<glyph unicode="&#x2039;" horiz-adv-x="681" d="M100 551l242 -420h258l-225 420l225 420h-258z" />
<glyph unicode="&#x203a;" horiz-adv-x="681" d="M82 131h258l242 420l-242 420h-258l225 -420z" />
<glyph unicode="&#x205f;" horiz-adv-x="478" />
<glyph unicode="&#x20ac;" d="M-8 510l31 125h153q-6 82 0 160h-184l31 125h174q57 244 244.5 389t439.5 145q186 0 340 -76v-213q-152 70 -295 70q-154 0 -262.5 -85t-155.5 -230h600l-31 -125h-602q-8 -80 0 -160h565l-28 -125h-504q47 -143 156 -227q94 -72 221 -82v-226q-264 0 -447 140 q-188 141 -243 395h-203z" />
<glyph unicode="&#x2122;" horiz-adv-x="2048" d="M98 1266h240v-688h213v688h240v164h-693v-164zM952 578h201v602h4l217 -602h154l217 602h4v-602h201v852h-297l-201 -533l-203 533h-297v-852z" />
<glyph unicode="&#x25fc;" horiz-adv-x="1054" d="M0 0v1055h1055v-1055h-1055z" />
</font>
</defs>
</svg>
